<?xml version="1.0" encoding="UTF-8"?><svg xmlns="http://www.w3.org/2000/svg" viewBox="0 0 1819.67 639.67"><defs><style>.d{fill:#3a3939;}</style></defs><g id="a"/><g id="b"><g id="c"><g><path class="d" d="M1749.34,544.29c1.46-26.09,3.28-52.26,4.85-78.37,.14-2.3,.99-3.72,3.42-5.33,12.06-7.96,24.29-15.73,35.93-24.23,7.74-5.65,14.87-12.21,21.7-18.78,3.9-3.75,5.83-8.38,3.24-12.12-2.59-3.74-7.66-3.67-12.63-1.46-8.71,3.86-17.51,8-25.69,13.02-12.29,7.55-24.11,15.93-36.04,24.07-2.41,1.64-4.07,1.9-6.29,1.19-25.24-8.12-50.62-16.04-75.79-24.26-3.49-1.14-6.09-.57-9.59,2.04-4.41,3.28-9.12,6.2-14.39,9.73,18.79,15.05,37.21,29.81,55.97,44.84-8.88,5.96-17.45,11.79-26.15,17.44-1.11,.72-2.99,.73-4.29,.58-8.11-.95-16.53-1.41-24.11-3.27-7.57-1.86-13.38,1.46-19.91,7.32,7.26,6.35,14.53,12.71,21.77,19.05-2.44,3.83-3.19,7.45-1.66,9.72,1.58,2.23,5.27,2.87,9.78,2.03,3.33,8.96,6.68,17.95,10.02,26.93,7.93-3.85,13.19-7.96,14.21-15.58,1.02-7.63,3.67-15.52,5.74-23.3,.33-1.25,1.03-2.97,2.11-3.72,8.52-5.91,17.18-11.63,26.05-17.59,7.32,22.71,14.51,45.01,21.84,67.74,5.26-3.53,9.75-6.79,14.46-9.63,3.75-2.26,5.24-4.43,5.44-8.05Z"/><g><path class="d" d="M47.96,319.84c-.39,0-.79-.01-1.19-.01s-.79,0-1.19,.01c-35.86,.81-57.32,40.29-38.8,71.01l15.87,26.33,24.11,40,24.11-40,15.87-26.33c18.52-30.72-2.94-70.2-38.8-71.01Zm24.33,48.44l-25.52,35.08-25.52-35.08c-4.88-8.55,1.08-19.34,10.92-19.56,.11,0,.22,0,.33,0,7.88,0,14.27,6.39,14.27,14.27,0-7.88,6.39-14.27,14.27-14.27,.11,0,.22,0,.33,0,9.84,.22,15.8,11.01,10.92,19.56Z"/><circle class="d" cx="46.78" cy="492.81" r="15.76" transform="translate(-78.07 13.79) rotate(-9.19)"/></g><path class="d" d="M1237.98,639.67c-7.5-.03-15.11-.16-22.6-.38l.33-11.22c7.4,.22,14.9,.35,22.31,.38l-.05,11.23Zm22.6-.2l-.24-11.22c7.41-.16,14.91-.42,22.29-.78l.54,11.21c-7.48,.36-15.08,.62-22.58,.79Zm-67.8-1.14c-7.51-.42-15.1-.94-22.56-1.54l.91-11.19c7.37,.6,14.86,1.11,22.27,1.52l-.62,11.21Zm-653.46-1c-1.49,0-2.97,0-4.46-.03l.13-11.23c1.53,.02,3.06,.03,4.59,.03,5.8,0,11.71-.12,17.57-.36l.46,11.22c-6.09,.25-12.24,.36-18.28,.37Zm766.4-.02l-.84-11.19c7.39-.55,14.86-1.21,22.21-1.96l1.14,11.17c-7.45,.76-15.03,1.43-22.51,1.98Zm-793.6-.87c-7.62-.5-15.24-1.22-22.67-2.15l1.39-11.14c7.21,.9,14.62,1.6,22.02,2.09l-.74,11.2Zm68.16-.98l-1.02-11.18c7.3-.67,14.71-1.52,22.03-2.55l1.56,11.12c-7.5,1.05-15.1,1.93-22.57,2.61Zm567.42-.79c-7.44-.8-14.99-1.71-22.44-2.71l1.5-11.12c7.35,.99,14.8,1.89,22.14,2.68l-1.2,11.16Zm202.98-1.94l-1.45-11.13c7.36-.96,14.78-2.03,22.06-3.19l1.76,11.09c-7.39,1.18-14.91,2.26-22.38,3.23Zm-883.76-1.94c-7.56-1.43-15.05-3.1-22.28-4.98l2.83-10.86c6.98,1.82,14.22,3.44,21.53,4.82l-2.08,11.03Zm158.34-1.62l-2.08-11.03c7.23-1.37,14.53-2.92,21.7-4.63l2.6,10.92c-7.34,1.75-14.81,3.34-22.21,4.74Zm477.64-.51c-7.42-1.2-14.91-2.51-22.25-3.91l2.09-11.03c7.24,1.37,14.63,2.67,21.95,3.85l-1.79,11.08Zm292.44-3.04l-2.09-11.03c7.31-1.39,14.65-2.9,21.82-4.49l2.43,10.96c-7.29,1.62-14.74,3.15-22.16,4.56Zm-336.82-5.38c-7.36-1.61-14.76-3.34-21.99-5.15l2.72-10.89c7.13,1.78,14.42,3.48,21.68,5.07l-2.4,10.97Zm-635.79-1c-7.33-2.51-14.51-5.3-21.36-8.3l4.51-10.28c6.56,2.88,13.45,5.55,20.48,7.96l-3.64,10.62Zm246.69-.57l-3.1-10.79c7.08-2.04,14.2-4.27,21.17-6.63l3.6,10.63c-7.13,2.41-14.42,4.7-21.67,6.78Zm770.08-2.87l-2.78-10.87c7.17-1.83,14.4-3.8,21.49-5.86l3.12,10.78c-7.2,2.09-14.55,4.09-21.83,5.95Zm-424.8-6.49c-7.27-2.04-14.56-4.21-21.64-6.44l3.37-10.71c6.98,2.19,14.15,4.33,21.31,6.34l-3.04,10.81Zm-302.28-5.21l-4.1-10.45c6.87-2.69,13.75-5.58,20.45-8.58l4.59,10.24c-6.86,3.07-13.9,6.03-20.94,8.79Zm770.54-.89l-3.46-10.68c7.03-2.28,14.12-4.7,21.08-7.2l3.79,10.57c-7.07,2.54-14.27,5-21.41,7.31Zm-1102.17-2.45c-6.43-3.57-12.81-7.5-19.51-12.02l6.28-9.31c6.43,4.34,12.55,8.11,18.68,11.51l-5.45,9.82Zm590.79-5.03c-7.13-2.49-14.27-5.13-21.24-7.84l4.06-10.46c6.85,2.66,13.88,5.25,20.89,7.7l-3.71,10.6Zm553.97-7.81l-4.12-10.44c6.85-2.7,13.78-5.56,20.6-8.49l4.44,10.31c-6.92,2.98-13.96,5.88-20.92,8.62Zm-771.69-2.4l-5.08-10.01c6.59-3.35,13.15-6.89,19.51-10.52l5.57,9.74c-6.52,3.73-13.24,7.36-20,10.79Zm175.51-6.19c-6.96-2.99-13.91-6.12-20.66-9.31l4.8-10.15c6.62,3.13,13.44,6.21,20.28,9.14l-4.43,10.32Zm-586.55-3.89c-6.08-4.63-12.12-9.41-17.77-13.91l6.99-8.78c5.61,4.46,11.58,9.2,17.58,13.76l-6.79,8.94Zm1224.28-5.4l-4.75-10.17c6.68-3.12,13.42-6.39,20.05-9.73l5.05,10.02c-6.72,3.39-13.57,6.71-20.35,9.88Zm-773.81-7.09l-6.06-9.45c6.21-3.99,12.38-8.17,18.32-12.44l6.55,9.12c-6.1,4.38-12.43,8.68-18.81,12.77Zm95.12-3.01c-6.72-3.5-13.42-7.17-19.9-10.88l5.59-9.74c6.35,3.64,12.91,7.23,19.5,10.66l-5.19,9.96Zm719.09-10.26l-5.35-9.87c6.48-3.51,13.02-7.18,19.44-10.91l5.64,9.71c-6.52,3.78-13.15,7.51-19.72,11.07Zm-1300.01-2.02c-6.65-5.15-12.31-9.36-17.81-13.24l6.47-9.17c5.64,3.98,11.42,8.28,18.21,13.54l-6.87,8.87Zm541.6-10.31c-3.75-2.37-7.49-4.8-11.17-7.27-2.54,2.15-5.12,4.26-7.71,6.34l-7.03-8.75c4.03-3.24,8.03-6.58,11.93-9.96l1.48-2.13c.18,.12,.35,.25,.53,.37,.98-.86,1.96-1.73,2.93-2.6l7.5,8.35c-.28,.25-.56,.5-.84,.75,2.77,1.83,5.56,3.63,8.37,5.41l-6,9.49Zm797.53-10.37l-5.91-9.54c1.92-1.19,3.79-2.36,5.63-3.53l5.99,9.49c-1.87,1.18-3.77,2.37-5.71,3.58Zm-1375.35-4.66c-6.47-3.92-12.76-7.38-19.23-10.57l4.97-10.07c6.76,3.33,13.33,6.94,20.08,11.03l-5.82,9.6Zm540.6-10.96c-6.02-4.64-11.95-9.45-17.65-14.32l7.29-8.54c5.55,4.74,11.34,9.44,17.21,13.96l-6.85,8.89Zm52.18-5.34l-7.96-7.91c5.19-5.22,10.27-10.64,15.12-16.13l8.41,7.44c-4.99,5.64-10.23,11.23-15.56,16.6Zm-632.09-3.04c-6.73-2.57-13.73-4.89-20.81-6.87l3.03-10.81c7.4,2.08,14.73,4.5,21.78,7.19l-4.01,10.48Zm-194.61-1.08l-3.35-10.71c7.33-2.29,14.71-4.37,21.93-6.16l2.71,10.89c-7.01,1.75-14.17,3.76-21.29,5.99Zm42.89-10.65l-2.01-11.04c7.51-1.37,15.11-2.49,22.58-3.34l1.26,11.15c-7.22,.82-14.57,1.91-21.83,3.23Zm109.59-.16l-.47-.09c-7-1.33-14.18-2.41-21.33-3.2l1.24-11.16c7.43,.82,14.9,1.94,22.19,3.33l.4,.07-2.03,11.04Zm-65.77-4.77l-.46-11.22c7.62-.32,15.36-.35,22.86-.1l-.37,11.22c-7.23-.24-14.68-.21-22.02,.1Zm653.27-4.5c-5.51-5.24-10.9-10.65-16.03-16.09l8.17-7.7c4.98,5.29,10.23,10.56,15.59,15.65l-7.73,8.14Zm116.86-9.89l-8.84-6.92c2.69-3.43,5.34-6.95,7.89-10.45,1.74-2.4,3.51-4.88,5.24-7.37l9.22,6.41c-1.78,2.56-3.59,5.1-5.38,7.56-2.62,3.61-5.36,7.23-8.13,10.77Zm-147.99-23.19c-4.88-5.83-9.63-11.84-14.09-17.87l9.02-6.68c4.33,5.85,8.94,11.69,13.68,17.34l-8.6,7.21Zm174.01-14.11l-9.52-5.95c3.87-6.18,7.68-12.61,11.33-19.09l9.78,5.51c-3.74,6.63-7.64,13.2-11.6,19.52Zm-201.09-22.48c-4.13-6.37-8.1-12.94-11.8-19.52l9.79-5.5c3.58,6.38,7.43,12.74,11.43,18.91l-9.42,6.11Zm223.4-17.04l-10.01-5.09c3.33-6.54,6.58-13.27,9.66-20.01l10.21,4.67c-3.15,6.88-6.46,13.75-9.86,20.43Zm-245.74-22.73c-3.22-6.67-6.35-13.66-9.31-20.77l10.36-4.32c2.88,6.92,5.93,13.72,9.06,20.21l-10.11,4.88Zm264.61-18.51l-10.39-4.25c2.8-6.84,5.49-13.82,7.99-20.74l10.56,3.82c-2.56,7.07-5.3,14.19-8.16,21.17Zm-282.14-23.45c-2.54-7.07-4.95-14.32-7.17-21.56l10.73-3.29c2.17,7.07,4.52,14.15,7,21.05l-10.56,3.8Zm297.58-19.21l-10.71-3.38c2.24-7.09,4.33-14.26,6.23-21.33l10.84,2.91c-1.94,7.22-4.08,14.56-6.36,21.8Zm-310.89-24.23c-1.88-7.37-3.59-14.82-5.09-22.16l11-2.24c1.46,7.16,3.13,14.43,4.96,21.62l-10.88,2.78Zm322.65-19.63l-10.96-2.41c1.6-7.29,3.03-14.61,4.24-21.77l11.07,1.87c-1.24,7.34-2.7,14.84-4.35,22.31Zm-331.71-24.92c-1.14-7.59-2.07-15.19-2.76-22.6l11.18-1.04c.67,7.19,1.57,14.58,2.68,21.97l-11.1,1.67Zm339.25-19.91l-11.15-1.28c.85-7.44,1.48-14.85,1.87-22.04l11.21,.61c-.4,7.41-1.05,15.05-1.92,22.7Zm-343.43-25.44c-.1-3.37-.15-6.76-.15-10.08,0-4.29,.09-8.59,.26-12.76l11.22,.46c-.16,4.02-.25,8.16-.25,12.3,0,3.21,.05,6.49,.15,9.74l-11.22,.34Zm334.61-19.94c-.1-7.49-.49-14.88-1.14-21.98l11.18-1.03c.68,7.38,1.08,15.07,1.19,22.85l-11.22,.15Zm-321.5-24.36l-11.14-1.39c.97-7.79,2.29-15.41,3.92-22.65l10.95,2.47c-1.55,6.89-2.81,14.14-3.73,21.57Zm317.37-19.34c-1.36-7.34-3.09-14.48-5.12-21.22l10.75-3.24c2.15,7.13,3.97,14.67,5.4,22.41l-11.04,2.05Zm-307.66-23.18l-10.59-3.72c2.62-7.47,5.7-14.64,9.14-21.33l9.98,5.14c-3.21,6.23-6.08,12.93-8.53,19.91Zm294.99-18.39c-3.01-6.71-6.47-13.1-10.27-18.98l9.43-6.09c4.11,6.36,7.83,13.25,11.08,20.47l-10.24,4.6Zm-275.15-19.83l-9.04-6.65c4.65-6.33,9.84-12.25,15.42-17.58l7.76,8.11c-5.11,4.89-9.86,10.31-14.14,16.12Zm251.78-16.14c-3.59-3.9-7.45-7.58-11.49-10.95-1.41-1.17-2.87-2.33-4.35-3.46l6.78-8.94c1.62,1.22,3.21,2.5,4.75,3.78,4.42,3.68,8.65,7.71,12.57,11.97l-8.26,7.6Zm-220.87-13.46l-6.34-9.26c6.26-4.29,12.98-8.26,19.96-11.79l5.06,10.02c-6.54,3.31-12.82,7.02-18.68,11.03Zm186.87-12.45c-6.22-3.28-12.89-6.18-19.82-8.64l3.75-10.58c7.43,2.64,14.6,5.76,21.3,9.29l-5.23,9.93Zm-148.21-7.17l-3.81-10.56c7.15-2.58,14.59-4.79,22.12-6.57l2.58,10.92c-7.12,1.68-14.15,3.77-20.9,6.2Zm107.49-7.37c-6.98-1.51-14.22-2.62-21.53-3.32l1.07-11.17c7.74,.74,15.42,1.93,22.82,3.53l-2.37,10.97Zm-65.11-2.68l-1.38-11.14c7.61-.94,15.34-1.48,22.99-1.59l.17,11.22c-7.25,.11-14.57,.62-21.78,1.51Z"/></g></g></g></svg>